# xmcd
#
# Track frame offsets:
#	150
#	13372
#	29310
#	39511
#	58734
#	84946
#	98100
#	110235
#	168042
#	175570
#
# Disc length: 2428 seconds
#
# Revision: 1
# Processed by: cddbd v1.4PL0 Copyright (c) Steve Scherf et al.
# Submitted via: audiograbber 1.80
#
DISCID=75097a0a
DTITLE=Estudantina Académica Do ISEL - Ao Vivo... 100 Palmas!!!
DYEAR=1900
DGENRE=
TTITLE0=Hino Da E.A.ISEL
TTITLE1=Vida De Um Estudante
TTITLE2=Um Bandolim
TTITLE3=Maria E Manel
TTITLE4=Um Fado Da Saudade
TTITLE5=Fado Do Estudante
TTITLE6=Pilinha
TTITLE7=Rapsódia
TTITLE8=Brinde
TTITLE9=Grito Académico
EXTD=
EXTT0=
EXTT1=
EXTT2=
EXTT3=
EXTT4=
EXTT5=
EXTT6=
EXTT7=
EXTT8=
EXTT9=
PLAYORDER=
